<svg width="29" height="33" viewBox="0 0 29 33" fill="none" xmlns="http://www.w3.org/2000/svg">
    <path d="M20.3 19.5938C18.4422 19.5938 17.5489 20.625 14.5 20.625C11.4511 20.625 10.5643 19.5938 8.7 19.5938C3.89687 19.5938 0 23.4738 0 28.2563V29.9062C0 31.6143 1.39174 33 3.10714 33H25.8929C27.6083 33 29 31.6143 29 29.9062V28.2563C29 23.4738 25.1031 19.5938 20.3 19.5938ZM25.8929 29.9062H3.10714V28.2563C3.10714 25.1883 5.61875 22.6875 8.7 22.6875C9.64509 22.6875 11.1792 23.7188 14.5 23.7188C17.8467 23.7188 19.3484 22.6875 20.3 22.6875C23.3813 22.6875 25.8929 25.1883 25.8929 28.2563V29.9062ZM14.5 18.5625C19.6462 18.5625 23.8214 14.4053 23.8214 9.28125C23.8214 4.15723 19.6462 0 14.5 0C9.35379 0 5.17857 4.15723 5.17857 9.28125C5.17857 14.4053 9.35379 18.5625 14.5 18.5625ZM14.5 3.09375C17.9243 3.09375 20.7143 5.87168 20.7143 9.28125C20.7143 12.6908 17.9243 15.4688 14.5 15.4688C11.0757 15.4688 8.28571 12.6908 8.28571 9.28125C8.28571 5.87168 11.0757 3.09375 14.5 3.09375Z"
          fill="#2EAC68"/>
</svg>
