<svg width="34" height="33" viewBox="0 0 34 33" fill="none" xmlns="http://www.w3.org/2000/svg">
    <path d="M26.7143 15.3438V17.6562C26.7143 18.1332 26.3045 18.5234 25.8036 18.5234H19.125V24.8828C19.125 25.3598 18.7152 25.75 18.2143 25.75H15.7857C15.2848 25.75 14.875 25.3598 14.875 24.8828V18.5234H8.19643C7.69554 18.5234 7.28571 18.1332 7.28571 17.6562V15.3438C7.28571 14.8668 7.69554 14.4766 8.19643 14.4766H14.875V8.11719C14.875 7.64023 15.2848 7.25 15.7857 7.25H18.2143C18.7152 7.25 19.125 7.64023 19.125 8.11719V14.4766H25.8036C26.3045 14.4766 26.7143 14.8668 26.7143 15.3438ZM34 3.78125V29.2188C34 31.1338 32.3683 32.6875 30.3571 32.6875H3.64286C1.6317 32.6875 0 31.1338 0 29.2188V3.78125C0 1.86621 1.6317 0.3125 3.64286 0.3125H30.3571C32.3683 0.3125 34 1.86621 34 3.78125ZM30.3571 28.7852V4.21484C30.3571 3.97637 30.1522 3.78125 29.9018 3.78125H4.09821C3.84777 3.78125 3.64286 3.97637 3.64286 4.21484V28.7852C3.64286 29.0236 3.84777 29.2188 4.09821 29.2188H29.9018C30.1522 29.2188 30.3571 29.0236 30.3571 28.7852Z"
          fill="#2EAC68"/>
</svg>
