<svg width="33" height="33" viewBox="0 0 33 33" fill="none" xmlns="http://www.w3.org/2000/svg">
<path d="M31.9644 7.39027L25.7856 1.32848C25.1225 0.677964 24.2232 0.312505 23.2855 0.3125H3.53571C1.58297 0.3125 0 1.86549 0 3.78125V29.2188C0 31.1345 1.58297 32.6875 3.53571 32.6875H29.4643C31.417 32.6875 33 31.1345 33 29.2188V9.84304C33 8.92307 32.6275 8.04078 31.9644 7.39027ZM16.5 28.0625C13.8964 28.0625 11.7857 25.9918 11.7857 23.4375C11.7857 20.8832 13.8964 18.8125 16.5 18.8125C19.1036 18.8125 21.2143 20.8832 21.2143 23.4375C21.2143 25.9918 19.1036 28.0625 16.5 28.0625ZM23.5714 6.05617V13.3203C23.5714 13.7992 23.1756 14.1875 22.6875 14.1875H5.59821C5.11006 14.1875 4.71429 13.7992 4.71429 13.3203V5.80469C4.71429 5.32578 5.11006 4.9375 5.59821 4.9375H22.4312C22.6656 4.9375 22.8904 5.02884 23.0562 5.19151L23.3125 5.443C23.3946 5.52351 23.4597 5.6191 23.5042 5.72431C23.5486 5.82952 23.5714 5.94229 23.5714 6.05617Z" fill="#2EAC68"/>
</svg>
